# xmcd
#
# Track frame offsets:
#	150
#	19291
#	34738
#	50876
#	66640
#	79911
#	94093
#	106637
#	126193
#	139949
#
# Disc length: 2114 seconds
#
# Revision: 3
# Processed by: cddbd v1.5.1PL2 Copyright (c) Steve Scherf et al.
# Submitted via: EasyCDDAExtractor 6.5.9.5
#
DISCID=8f08400a
DTITLE=Juice Newton - Juice
DYEAR=1981
DGENRE=Country
TTITLE0=Angel Of The Morning
TTITLE1=Shot Full Of Love
TTITLE2=Ride 'Em Cowboy
TTITLE3=Queen Of Hearts
TTITLE4=River Of Love
TTITLE5=All I Have To Do Is Dream
TTITLE6=Headin' For A Heartache
TTITLE7=Country Comfort
TTITLE8=Texas Heartache
TTITLE9=The Sweetest Thing (I've Ever Known)
EXTD=
EXTT0=
EXTT1=
EXTT2=
EXTT3=
EXTT4=
EXTT5=
EXTT6=
EXTT7=
EXTT8=
EXTT9=
PLAYORDER=
